<svg width="44" height="44" viewBox="0 0 44 44" fill="none" xmlns="http://www.w3.org/2000/svg">
<circle cx="22" cy="22" r="21" fill="#111111" stroke="#E3C3FF" stroke-width="2"/>
<path d="M14.8657 22.3956C14.8657 20.8703 15.1957 19.5136 15.8557 18.3256C16.5157 17.123 17.4324 16.1916 18.6057 15.5316C19.7937 14.857 21.1357 14.5196 22.6317 14.5196C24.465 14.5196 26.0344 15.0036 27.3397 15.9716C28.645 16.9396 29.5177 18.2596 29.9577 19.9316H25.8217C25.5137 19.2863 25.0737 18.795 24.5017 18.4576C23.9444 18.1203 23.3064 17.9516 22.5877 17.9516C21.429 17.9516 20.4904 18.355 19.7717 19.1616C19.053 19.9683 18.6937 21.0463 18.6937 22.3956C18.6937 23.745 19.053 24.823 19.7717 25.6296C20.4904 26.4363 21.429 26.8396 22.5877 26.8396C23.3064 26.8396 23.9444 26.671 24.5017 26.3336C25.0737 25.9963 25.5137 25.505 25.8217 24.8596H29.9577C29.5177 26.5316 28.645 27.8516 27.3397 28.8196C26.0344 29.773 24.465 30.2496 22.6317 30.2496C21.1357 30.2496 19.7937 29.9196 18.6057 29.2596C17.4324 28.585 16.5157 27.6536 15.8557 26.4656C15.1957 25.2776 14.8657 23.921 14.8657 22.3956Z" fill="#E3C3FF"/>
</svg>
