<svg width="96" height="96" viewBox="0 0 96 96" fill="none" xmlns="http://www.w3.org/2000/svg">
<path d="M88 48C88 70.0914 70.0914 88 48 88C25.9086 88 8 70.0914 8 48C8 25.9086 25.9086 8 48 8C70.0914 8 88 25.9086 88 48Z" fill="black"/>
<path d="M84.0656 48C84.0656 67.9185 67.9185 84.0656 48 84.0656C28.0815 84.0656 11.9344 67.9185 11.9344 48C11.9344 28.0815 28.0815 11.9344 48 11.9344C67.9185 11.9344 84.0656 28.0815 84.0656 48Z" fill="white"/>
<path d="M23.7377 48C23.7377 50.8972 21.389 53.2459 18.4918 53.2459C15.5946 53.2459 13.2459 50.8972 13.2459 48C13.2459 45.1028 15.5946 42.7541 18.4918 42.7541C21.389 42.7541 23.7377 45.1028 23.7377 48Z" fill="black"/>
<path d="M82.7541 48C82.7541 50.8972 80.4054 53.2459 77.5082 53.2459C74.611 53.2459 72.2623 50.8972 72.2623 48C72.2623 45.1028 74.611 42.7541 77.5082 42.7541C80.4054 42.7541 82.7541 45.1028 82.7541 48Z" fill="black"/>
<path d="M60.1311 69.0118C62.6402 67.5632 65.8486 68.4228 67.2972 70.9319C68.7458 73.441 67.8861 76.6493 65.377 78.0979C62.868 79.5466 59.6596 78.6869 58.211 76.1778C56.7624 73.6687 57.6221 70.4604 60.1311 69.0118Z" fill="black"/>
<path d="M30.6229 17.9021C33.132 16.4535 36.3404 17.3131 37.789 19.8222C39.2376 22.3313 38.3779 25.5396 35.8688 26.9882C33.3598 28.4369 30.1514 27.5772 28.7028 25.0681C27.2542 22.559 28.1139 19.3507 30.6229 17.9021Z" fill="black"/>
<path d="M35.8688 69.0118C38.3779 70.4604 39.2376 73.6687 37.789 76.1778C36.3404 78.6869 33.132 79.5466 30.6229 78.0979C28.1139 76.6493 27.2542 73.441 28.7028 70.9319C30.1514 68.4228 33.3598 67.5632 35.8688 69.0118Z" fill="black"/>
<path d="M65.377 17.9021C67.8861 19.3507 68.7458 22.559 67.2972 25.0681C65.8486 27.5772 62.6402 28.4369 60.1311 26.9882C57.6221 25.5396 56.7624 22.3313 58.211 19.8222C59.6596 17.3131 62.868 16.4535 65.377 17.9021Z" fill="black"/>
<path d="M70.9508 48C70.9508 60.6754 60.6754 70.9508 48 70.9508C35.3246 70.9508 25.0492 60.6754 25.0492 48C25.0492 35.3246 35.3246 25.0492 48 25.0492C60.6754 25.0492 70.9508 35.3246 70.9508 48Z" fill="#111111"/>
</svg>
